<svg xmlns="http://www.w3.org/2000/svg" width="32" height="33"><path fill="#dd4313" d="M.001.202h32.004v32.026H.001z"/><path fill="#fff" d="M23.021 11.317H20.37v-1.285h2.652V7.463h1.326v2.57H27v1.284h-2.653v2.57h-1.326zM6.994 22.473c0-1.812 1.184-4.164 6.717-4.164-.822-.648-1.023-1.556-.521-2.538-3.24 0-4.898-1.846-4.898-4.188 0-2.293 1.76-4.377 5.348-4.377h5.749l-1.284 1.306h-1.51c1.065.591 1.631 1.808 1.631 3.15 0 1.231-.7 2.229-1.698 2.977-1.773 1.328-1.32 2.07.538 3.381 1.831 1.33 2.436 2.355 2.436 3.925 0 1.927-1.815 4.272-6.383 4.272-3.34 0-6.125-1.396-6.125-3.744zm6.75-7.531c1.548.045 2.44-1.225 2.173-3.196-.268-1.972-1.594-3.589-3.143-3.634-1.549-.045-2.588 1.464-2.32 3.436.267 1.971 1.74 3.348 3.29 3.394zM9.16 22.056c0 1.701 1.667 3.116 3.975 3.116 2.952 0 4.378-1.328 4.378-3.029 0-1.621-1.527-3.167-4.089-3.167-2.308-.025-4.264 1.413-4.264 3.08z"/></svg>