<svg xmlns="http://www.w3.org/2000/svg" width="16" height="20"><path fill="#61279e" d="M15.93 16.874c.19.436.157.896-.096 1.295-.991 1.566-5.979 1.734-8.077 1.734-2.456 0-6.712-.213-7.623-1.64a1.335 1.335 0 01-.1-1.278 14.905 14.905 0 011.544-2.778c-.733-.076-1.026-.427-1.146-.718-.236-.575.02-1.33.78-2.302C.167 9.83.653 8.525.885 7.3l.036-.186.435-1.262.355-1.229C1.716 4.6 2.893.095 8.045.095c4.852 0 5.768 3.978 5.875 4.553l.287.844.668 1.358.052.124c.374.88 1.485 2.708-.043 3.92.571.685 1.227 1.695.937 2.463-.123.324-.445.718-1.283.758h-.172a14.684 14.684 0 011.564 2.759zm-4.41-5.873a8.539 8.539 0 00.39-1.974 8.989 8.989 0 01-4.256-2.013l-1.95-.542a3.21 3.21 0 01-1.638 1.64l-.003.112c0 1.018.167 2.031.482 2.932.143.357.316.747.507 1.136.744 1.333 1.826 2.113 2.955 2.113 1.205 0 2.334-.873 3.098-2.395zm-9.817 6.415c.558.285 2.472.753 6.054.753 3.66 0 5.89-.506 6.511-.843-.584-1.272-1.295-2.349-2.118-3.21h-.379c-1.035 1.307-2.363 2.022-3.764 2.022-1.359 0-2.657-.679-3.68-1.92H3.76c-.798.864-1.49 1.937-2.058 3.198z"/></svg>