<svg xmlns="http://www.w3.org/2000/svg" width="32" height="33"><path fill="#d13139" d="M-.001.202h32.004v32.026H-.001z"/><path fill="#fff" d="M10.583 18.352c.29.113.548.004.632-.302.058-.211.196-.745.257-.967.085-.303.052-.409-.181-.673-.508-.573-.832-1.314-.832-2.365 0-3.048 2.384-5.777 6.208-5.777 3.386 0 5.247 1.98 5.247 4.623 0 3.477-1.61 6.413-3.998 6.413-1.32 0-2.306-1.044-1.99-2.324.38-1.528 1.113-3.177 1.113-4.28 0-.987-.554-1.81-1.7-1.81-1.35 0-2.433 1.334-2.433 3.121 0 1.139.403 1.909.403 1.909l-1.622 6.572c-.482 1.95-.073 4.341-.038 4.583.02.143.212.177.3.069.124-.155 1.73-2.052 2.276-3.947.155-.536.887-3.315.887-3.315.438.8 1.719 1.503 3.08 1.503 4.054 0 6.805-3.534 6.805-8.266 0-3.577-3.168-6.909-7.984-6.909-5.99 0-9.012 4.108-9.012 7.535 0 2.074.821 3.919 2.582 4.607z"/></svg>