<svg xmlns="http://www.w3.org/2000/svg" width="19" height="19"><path fill="#61279e" d="M18.994 5.22l-1.055 3.274c0 1.205-2.069 1.402-3.234 1.402H5.882l.735 1.518h11.764l-.735 2.278H4.41L2.661 2.277H1.055C.472 2.277 0 1.788 0 1.185 0 .582.472.094 1.055.094h2.11c.09 0 .17.03.252.052L4.528.011l.619 2.29c.21-.052.537 0 .735 0h11.764c1.165 0 1.348 1.713 1.348 2.918zM8.085 14.45c1.223 0 2.215 1.021 2.215 2.28 0 1.258-.992 2.278-2.215 2.278-1.223 0-2.214-1.02-2.214-2.278 0-1.259.991-2.28 2.214-2.28zm5.884 0c1.216 0 2.202 1.021 2.202 2.28 0 1.258-.986 2.278-2.202 2.278-1.217 0-2.203-1.02-2.203-2.278 0-1.259.986-2.28 2.203-2.28z"/></svg>