<svg xmlns="http://www.w3.org/2000/svg" width="17" height="18"><path fill="#61279e" d="M16.536 8.214c-.21.334-.161.104-.48.312v7.58c0 1.211-1.093 1.895-2.048 1.895H2.784c-.955 0-1.731-.986-1.731-2.198V8.867a2.64 2.64 0 01-.584-.653C-.207 7.137.038 5.924.068 5.789l.055-.253L1.537 4.37V2.29c0-1.263.86-2.29 1.918-2.29h9.97c1.083-.001 2.234 1.012 2.105 2.281-.187.009.526 2.456.526 2.456l.825.799.056.257c.049.225.25 1.384-.401 2.42zM14.05 9.529c-.1.005-.197.012-.301.012a3.072 3.072 0 01-1.759-.56 3.105 3.105 0 01-3.5.012A3.106 3.106 0 015 8.989a3.07 3.07 0 01-1.747.552 4.98 4.98 0 01-.512-.027v6.289c0 .149.054.236.074.25l.83-.004.132-3.733c0-.909 1.104-1.895 1.889-1.895h1.889c.785 0 1.888.986 1.888 1.895v3.79h4.723a.524.524 0 01-.116-.303zM1.692 6.384c-.01.16-.004.446.142.679.272.432.923.523 1.42.523.443 0 .865-.19 1.16-.521l.588-.661.588.66c.588.663 1.725.665 2.315.005l.586-.654.586.653c.593.663 1.736.657 2.322-.011l.592-.675.593.675c.295.336.72.53 1.166.53.498 0 1.148-.092 1.42-.524.146-.232.152-.52.142-.68l-1.145-1.646V1.895c0-.181-.617.06-.741.06h-9.97c-.125 0-.23.154-.23.335v2.75z"/></svg>