<svg xmlns="http://www.w3.org/2000/svg" width="32" height="33"><path fill="#385060" d="M.014.202h31.973v32.026H.014z"/><path fill="#fff" d="M21.01 24.288c-.697.341-1.327.58-1.891.717a7.718 7.718 0 01-1.83.206c-.745 0-1.403-.098-1.975-.294a4.176 4.176 0 01-1.464-.837c-.404-.363-.685-.75-.84-1.157-.157-.409-.235-1-.235-1.776v-5.954h-1.784v-2.42a4.718 4.718 0 001.638-.93 4.62 4.62 0 001.095-1.457c.276-.566.466-1.286.57-2.161h2.308v4.302h3.87v2.666h-3.87v4.358c0 .985.05 1.616.15 1.896.1.28.286.503.559.67.36.225.772.338 1.236.338.825 0 1.646-.28 2.463-.839z"/></svg>