<svg xmlns="http://www.w3.org/2000/svg" width="32" height="33"><path fill="#80d9f6" d="M-.012.202h32.005v32.026H-.012z"/><path fill="#fff" d="M6.011 22.516a12.299 12.299 0 006.283 1.703c7.61 0 11.91-5.945 11.651-11.278a8.007 8.007 0 002.045-1.963 8.716 8.716 0 01-2.354.597c.846-.469 1.496-1.212 1.802-2.097-.792.435-1.67.75-2.603.92-.747-.737-1.812-1.197-2.992-1.197-2.645 0-4.59 2.283-3.993 4.655-3.406-.158-6.427-1.668-8.448-3.961-1.074 1.704-.557 3.933 1.269 5.061a4.34 4.34 0 01-1.857-.473c-.045 1.756 1.316 3.398 3.287 3.765a4.434 4.434 0 01-1.85.065c.52 1.506 2.035 2.601 3.828 2.632-1.723 1.25-3.893 1.808-6.068 1.57z"/></svg>