<svg xmlns="http://www.w3.org/2000/svg" width="32" height="33" viewBox="0 0 32 33"><g><g><path fill="#436e90" d="M.009.202h32.004v32.026H.01z"/></g><g><path fill="#fff" d="M13.026 13.402H7.008v-2.455c0-1.26.627-2.374 1.586-3.05v4.025h.77V7.478c.174-.07.355-.126.542-.17v4.614h.77v-4.71c.029-.001.057-.003.086-.003h.445v4.713h.77V7.209h10.259a3.746 3.746 0 0 1 3.754 3.738v2.455h-6.043a4.855 4.855 0 0 0-3.46-1.443 4.853 4.853 0 0 0-3.46 1.443zm8.014-1.965c0 .331.27.6.602.6h2.03a.601.601 0 0 0 .602-.6V9.371c0-.33-.27-.599-.603-.599h-2.029a.6.6 0 0 0-.602.6zm-.812 5.358c0 2.055-1.678 3.727-3.742 3.727-2.063 0-3.741-1.672-3.741-3.727 0-1.115.495-2.116 1.278-2.8a3.74 3.74 0 0 1 4.928 0 3.712 3.712 0 0 1 1.277 2.8zm-.964 0a2.76 2.76 0 0 0-2.765-2.753 2.76 2.76 0 0 0-2.766 2.753A2.76 2.76 0 0 0 16.5 19.55a2.76 2.76 0 0 0 2.765-2.754zM7.008 22.471v-8.476h5.52a4.796 4.796 0 0 0-.899 2.8c0 2.672 2.175 4.837 4.857 4.837 2.683 0 4.858-2.165 4.858-4.837a4.8 4.8 0 0 0-.899-2.8h5.545v8.476a3.746 3.746 0 0 1-3.754 3.738H10.762a3.746 3.746 0 0 1-3.754-3.738z"/></g></g></svg>