<svg xmlns="http://www.w3.org/2000/svg" width="18" height="13" viewBox="0 0 18 13"><defs><clipPath id="r2saa"><path fill="#fff" d="M1.992 0h13.942c1.1 0 1.992.894 1.992 1.997v8.987a1.995 1.995 0 0 1-1.992 1.997H1.992C.892 12.98 0 12.086 0 10.984V1.997C0 .894.892 0 1.992 0z"/></clipPath></defs><g><g><g><path fill="none" stroke="#61279e" stroke-linecap="round" stroke-linejoin="round" stroke-miterlimit="50" stroke-width="4" d="M1.992 0h13.942c1.1 0 1.992.894 1.992 1.997v8.987a1.995 1.995 0 0 1-1.992 1.997H1.992C.892 12.98 0 12.086 0 10.984V1.997C0 .894.892 0 1.992 0z" clip-path="url(&quot;#r2saa&quot;)"/></g><g><path fill="#61279e" d="M2.285 2.196c.162-.222.522-.237.803-.03L8.92 6.418l5.156-4.275c.267-.222.608-.206.762.035.023.036.04.074.053.115l.18-.15c.268-.222.61-.206.763.035.153.24.061.615-.206.836L9.821 7.83a.657.657 0 0 1-.349.155c.049.148.035.3-.05.418-.162.223-.521.237-.803.032L2.502 3.97c-.281-.205-.378-.552-.217-.775a.435.435 0 0 1 .29-.17l-.073-.053c-.281-.205-.378-.552-.217-.776z"/></g></g></g></svg>