<svg xmlns="http://www.w3.org/2000/svg" width="32" height="33" viewBox="0 0 32 33"><g><g><path fill="#ce2627" d="M.004.202h32.004v32.026H.004z"/></g><g><path fill="#fff" d="M18.47 12.68V7.448h1.16v4.798c0 .252.06.421.308.421.227 0 .541-.291.683-.468v-4.75h1.159v6.257h-1.16v-.69c-.502.598-.99.781-1.34.781-.622 0-.81-.5-.81-1.117zm-4.352-3.601c0-1.005.678-1.682 1.7-1.682.94 0 1.667.702 1.667 1.682v3.067c0 1.051-.734 1.677-1.667 1.677-1.125 0-1.7-.574-1.7-1.677zm1.194 3.013c0 .33.186.593.506.593.312 0 .485-.251.485-.593v-2.91c0-.35-.152-.597-.508-.597-.326 0-.483.254-.483.596zm-3.96-1.826L9.797 5.223h1.315l.9 3.391.838-3.39h1.326l-1.52 5.042v3.44h-1.306zM26 17.799v6.74a2.663 2.663 0 0 1-2.66 2.668H9.672a2.663 2.663 0 0 1-2.659-2.668v-6.74a2.663 2.663 0 0 1 2.66-2.668h13.67A2.663 2.663 0 0 1 26 17.799zm-14.508.504h1.287V17.13H8.962v1.173h1.287v6.906h1.244zm4.424.947h-1.105v4.524c-.134.169-.434.446-.649.446-.236 0-.294-.163-.294-.402V19.25h-1.104v4.981c0 1.21.817 1.217 1.412.874.22-.126.432-.311.636-.553v.657h1.104zm4.252 1.418c0-.808-.268-1.494-1.077-1.494-.394 0-.733.252-.982.557V17.13h-1.115v8.08h1.115v-.458c.308.385.645.533 1.05.533.734 0 1.01-.573 1.01-1.31zm4.083.184c0-1.078-.512-1.753-1.572-1.753-.997 0-1.677.718-1.677 1.753v2.676c0 1.072.538 1.843 1.593 1.843 1.164 0 1.656-.696 1.656-1.843v-.45h-1.137v.415c0 .52-.027.834-.493.834-.445 0-.483-.386-.483-.834V22.37h2.113zm-5.338-.574c.078.103.119.256.119.457v3.078c0 .19-.032.326-.097.41-.121.16-.385.153-.564.062a.956.956 0 0 1-.262-.21v-3.714a.805.805 0 0 1 .228-.182c.193-.097.443-.079.576.099z"/></g></g></svg>